# Blender 3.5.1
# www.blender.org
mtllib gun.mtl
o Cube.002
v 0.014335 0.013291 -0.153805
v 0.014335 -0.013291 -0.153805
v 0.040510 0.013291 -0.149285
v 0.040510 -0.013291 -0.149285
v -0.013272 0.013291 0.006084
v -0.013272 -0.013291 0.006084
v 0.012903 0.013291 0.010604
v 0.012903 -0.013291 0.010604
v -0.178377 0.013434 0.009127
v -0.178377 -0.013434 0.009127
v -0.178377 0.013434 -0.023489
v -0.178377 -0.013434 -0.023489
v 0.238027 0.002589 0.002578
v 0.238027 -0.002589 0.002578
v 0.238027 0.002589 -0.002578
v 0.238027 -0.002589 -0.002578
v 0.219264 -0.016613 -0.016602
v 0.219264 0.016613 -0.016602
v 0.198747 0.013434 0.009127
v 0.198747 -0.013434 0.009127
v 0.235059 -0.007945 -0.007933
v 0.235059 0.007945 -0.007933
v 0.235059 0.007945 0.007933
v 0.235059 -0.007945 0.007933
v -0.261482 0.016613 -0.072631
v -0.261482 0.016613 0.012342
v -0.261482 -0.016613 0.012342
v -0.261482 -0.016613 -0.072631
v -0.198894 0.016613 -0.016602
v -0.198894 0.016613 0.016602
v -0.198894 -0.016613 0.016602
v -0.198894 -0.016613 -0.016602
v 0.198747 -0.013434 -0.023489
v 0.198747 0.013434 -0.023489
v 0.219264 0.016613 0.016602
v 0.219264 -0.016613 0.016602
v -0.149678 0.013291 -0.067240
v -0.149678 -0.013291 -0.067240
v -0.126628 0.013291 -0.080442
v -0.126628 -0.013291 -0.080442
v -0.110446 0.013291 0.001256
v -0.110446 -0.013291 0.001256
v -0.087397 0.013291 -0.011946
v -0.087397 -0.013291 -0.011946
v -0.133484 0.006645 0.025595
v -0.133484 -0.006645 0.025595
v -0.133484 0.006645 0.012314
v -0.133484 -0.006645 0.012314
v 0.217293 0.003092 0.022041
v 0.217293 -0.003092 0.022041
v 0.217293 0.003092 0.015867
v 0.217293 -0.003092 0.015867
v 0.208567 -0.006645 0.012314
v 0.208567 0.006645 0.012314
v 0.208567 0.006645 0.025595
v 0.208567 -0.006645 0.025595
v -0.197866 0.006645 0.001678
v -0.197866 0.006645 0.014959
v -0.197866 -0.006645 0.014959
v -0.197866 -0.006645 0.001678
v -0.085034 0.002373 -0.029227
v -0.085034 -0.002373 -0.029227
v -0.080304 0.002373 -0.029587
v -0.080304 -0.002373 -0.029587
v -0.083704 0.002373 -0.011737
v -0.083704 -0.002373 -0.011737
v -0.078974 0.002373 -0.012097
v -0.078974 -0.002373 -0.012097
vn -0.1701 -0.0000 0.9854
vn -0.9854 -0.0000 -0.1701
vn 0.1701 -0.0000 -0.9854
vn 0.9854 -0.0000 0.1701
vn -0.0000 -1.0000 -0.0000
vn -0.0000 1.0000 -0.0000
vn -0.0000 -0.0000 1.0000
vn -1.0000 -0.0000 -0.0000
vn -0.0000 -0.0000 -1.0000
vn -0.4811 -0.0000 0.8767
vn -0.4811 -0.8767 -0.0000
vn -0.4811 0.8767 -0.0000
vn -0.4811 -0.0000 -0.8767
vn -0.8747 -0.0000 0.4847
vn -0.8747 -0.4847 -0.0000
vn -0.8747 0.4847 -0.0000
vn -0.8747 -0.0000 -0.4847
vn 1.0000 -0.0000 -0.0000
vn -0.6670 -0.0000 0.7451
vn 0.0679 -0.0000 -0.9977
vn -0.1531 -0.9882 -0.0000
vn -0.1531 0.9882 -0.0000
vn 0.3182 -0.0000 0.9480
vn -0.3182 -0.0000 0.9480
vn 0.1531 -0.9882 -0.0000
vn 0.1531 0.9882 -0.0000
vn -0.0000 -0.9202 0.3914
vn -0.0000 0.9202 0.3914
vn 0.4970 -0.0000 0.8677
vn -0.8677 -0.0000 0.4970
vn -0.4970 -0.0000 -0.8677
vn 0.8677 -0.0000 -0.4970
vn -0.1630 -0.0000 0.9866
vn -0.3772 -0.0000 0.9261
vn -0.3772 -0.9261 -0.0000
vn -0.3772 0.9261 -0.0000
vn -0.3772 -0.0000 -0.9261
vn 0.1630 -0.0000 -0.9866
vn 0.0758 -0.0000 0.9971
vn -0.9971 -0.0000 0.0758
vn -0.0758 -0.0000 -0.9971
vn 0.9971 -0.0000 -0.0758
vt 0.375000 0.000000
vt 0.375000 1.000000
vt 0.125000 0.750000
vt 0.625000 0.000000
vt 0.625000 1.000000
vt 0.875000 0.750000
vt 0.125000 0.500000
vt 0.375000 0.250000
vt 0.625000 0.250000
vt 0.875000 0.500000
vt 0.375000 0.750000
vt 0.625000 0.750000
vt 0.375000 0.500000
vt 0.625000 0.500000
vt 0.137266 0.641865
vt 0.862734 0.641865
vt 0.137266 0.500000
vt 0.375000 0.262266
vt 0.625000 0.262266
vt 0.862734 0.500000
vt 0.480518 0.644408
vt 0.519482 0.644408
vt 0.480518 0.605592
vt 0.519482 0.605592
vt 0.625000 0.500000
vt 0.375000 0.500000
vt 0.362734 0.641865
vt 0.637266 0.641865
vt 0.559777 0.565269
vt 0.440223 0.565269
vt 0.440223 0.684731
vt 0.559777 0.684731
vt 0.125000 0.500000
vt 0.375000 0.250000
vt 0.375000 0.000000
vt 0.125000 0.750000
vt 0.375000 1.000000
vt 0.625000 0.000000
vt 0.625000 1.000000
vt 0.875000 0.750000
vt 0.625000 0.250000
vt 0.875000 0.500000
vt 0.125000 0.500000
vt 0.375000 0.250000
vt 0.375000 1.000000
vt 0.125000 0.750000
vt 0.625000 1.000000
vt 0.875000 0.750000
vt 0.875000 0.500000
vt 0.625000 0.250000
vt 0.637266 0.500000
vt 0.362734 0.500000
vt 0.375000 0.750000
vt 0.625000 0.750000
vt 0.375000 0.000000
vt 0.375000 1.000000
vt 0.125000 0.750000
vt 0.625000 0.000000
vt 0.625000 1.000000
vt 0.875000 0.750000
vt 0.125000 0.500000
vt 0.375000 0.250000
vt 0.625000 0.250000
vt 0.875000 0.500000
vt 0.375000 0.750000
vt 0.625000 0.750000
vt 0.375000 0.500000
vt 0.625000 0.500000
vt 0.375000 1.000000
vt 0.125000 0.750000
vt 0.875000 0.750000
vt 0.625000 1.000000
vt 0.375000 0.250000
vt 0.125000 0.500000
vt 0.625000 0.250000
vt 0.875000 0.500000
vt 0.441845 0.683108
vt 0.558155 0.683108
vt 0.441845 0.566892
vt 0.558155 0.566892
vt 0.625000 0.500000
vt 0.375000 0.500000
vt 0.375000 0.750000
vt 0.625000 0.750000
vt 0.125000 0.500000
vt 0.375000 0.250000
vt 0.375000 0.000000
vt 0.375000 1.000000
vt 0.125000 0.750000
vt 0.625000 0.000000
vt 0.625000 1.000000
vt 0.875000 0.750000
vt 0.625000 0.250000
vt 0.875000 0.500000
vt 0.375000 0.000000
vt 0.375000 1.000000
vt 0.125000 0.750000
vt 0.625000 0.000000
vt 0.625000 1.000000
vt 0.875000 0.750000
vt 0.125000 0.500000
vt 0.375000 0.250000
vt 0.625000 0.250000
vt 0.875000 0.500000
vt 0.375000 0.750000
vt 0.625000 0.750000
vt 0.375000 0.500000
vt 0.625000 0.500000
s 0
usemtl Material.001
f 2/4/1 3/8/1 1/1/1
f 4/9/2 7/13/2 3/8/2
f 8/14/3 5/11/3 7/13/3
f 6/12/4 1/2/4 5/11/4
f 7/13/5 1/3/5 3/7/5
f 4/10/6 6/12/6 8/14/6
f 29/43/5 26/36/5 25/33/5
f 12/19/7 34/52/7 11/18/7
f 16/24/8 13/21/8 15/23/8
f 36/54/9 30/45/9 35/53/9
f 11/17/5 19/27/5 9/15/5
f 12/20/6 20/28/6 33/51/6
f 22/30/10 17/25/10 21/29/10
f 23/31/11 18/26/11 22/30/11
f 24/32/12 17/25/12 36/54/12
f 24/32/13 35/53/13 23/31/13
f 15/23/14 21/29/14 16/24/14
f 13/21/15 22/30/15 15/23/15
f 14/22/16 21/29/16 24/32/16
f 14/22/17 23/31/17 13/21/17
f 27/38/18 25/34/18 26/35/18
f 29/44/19 28/41/19 32/50/19
f 31/47/20 26/37/20 30/45/20
f 32/49/6 27/40/6 31/48/6
f 9/15/21 29/43/21 11/17/21
f 10/16/22 32/49/22 31/48/22
f 11/18/23 32/50/23 12/19/23
f 33/51/24 18/26/24 34/52/24
f 19/27/25 18/26/25 35/53/25
f 20/28/26 17/25/26 33/51/26
f 9/15/27 35/53/27 30/46/27
f 10/16/28 36/54/28 20/28/28
f 38/58/29 39/62/29 37/55/29
f 40/63/30 43/67/30 39/62/30
f 44/68/31 41/65/31 43/67/31
f 42/66/32 37/56/32 41/65/32
f 43/67/5 37/57/5 39/61/5
f 44/68/6 38/60/6 42/66/6
f 47/73/33 60/93/33 48/75/33
f 48/75/7 54/82/7 47/73/7
f 52/80/8 49/77/8 51/79/8
f 56/84/9 45/69/9 55/83/9
f 47/74/5 55/83/5 45/70/5
f 48/76/6 56/84/6 53/81/6
f 51/79/34 53/81/34 52/80/34
f 49/77/35 54/82/35 51/79/35
f 50/78/36 53/81/36 56/84/36
f 50/78/37 55/83/37 49/77/37
f 59/90/18 57/86/18 58/87/18
f 46/72/38 58/88/38 45/69/38
f 48/76/6 59/92/6 46/71/6
f 47/74/5 58/89/5 57/85/5
f 62/98/39 63/102/39 61/95/39
f 64/103/40 67/107/40 63/102/40
f 68/108/41 65/105/41 67/107/41
f 66/106/42 61/96/42 65/105/42
f 67/107/5 61/97/5 63/101/5
f 68/108/6 62/100/6 66/106/6
f 2/4/1 4/9/1 3/8/1
f 4/9/2 8/14/2 7/13/2
f 8/14/3 6/12/3 5/11/3
f 6/12/4 2/5/4 1/2/4
f 7/13/5 5/11/5 1/3/5
f 4/10/6 2/6/6 6/12/6
f 29/43/5 30/46/5 26/36/5
f 12/19/7 33/51/7 34/52/7
f 16/24/8 14/22/8 13/21/8
f 36/54/9 31/47/9 30/45/9
f 11/17/5 34/52/5 19/27/5
f 12/20/6 10/16/6 20/28/6
f 22/30/10 18/26/10 17/25/10
f 23/31/11 35/53/11 18/26/11
f 24/32/12 21/29/12 17/25/12
f 24/32/13 36/54/13 35/53/13
f 15/23/14 22/30/14 21/29/14
f 13/21/15 23/31/15 22/30/15
f 14/22/16 16/24/16 21/29/16
f 14/22/17 24/32/17 23/31/17
f 27/38/18 28/41/18 25/34/18
f 29/44/19 25/34/19 28/41/19
f 31/47/20 27/39/20 26/37/20
f 32/49/6 28/42/6 27/40/6
f 9/15/21 30/46/21 29/43/21
f 10/16/22 12/20/22 32/49/22
f 11/18/23 29/44/23 32/50/23
f 33/51/24 17/25/24 18/26/24
f 19/27/25 34/52/25 18/26/25
f 20/28/26 36/54/26 17/25/26
f 9/15/27 19/27/27 35/53/27
f 10/16/28 31/48/28 36/54/28
f 38/58/29 40/63/29 39/62/29
f 40/63/30 44/68/30 43/67/30
f 44/68/31 42/66/31 41/65/31
f 42/66/32 38/59/32 37/56/32
f 43/67/5 41/65/5 37/57/5
f 44/68/6 40/64/6 38/60/6
f 47/73/33 57/86/33 60/93/33
f 48/75/7 53/81/7 54/82/7
f 52/80/8 50/78/8 49/77/8
f 56/84/9 46/72/9 45/69/9
f 47/74/5 54/82/5 55/83/5
f 48/76/6 46/71/6 56/84/6
f 51/79/34 54/82/34 53/81/34
f 49/77/35 55/83/35 54/82/35
f 50/78/36 52/80/36 53/81/36
f 50/78/37 56/84/37 55/83/37
f 59/90/18 60/93/18 57/86/18
f 46/72/38 59/91/38 58/88/38
f 48/76/6 60/94/6 59/92/6
f 47/74/5 45/70/5 58/89/5
f 62/98/39 64/103/39 63/102/39
f 64/103/40 68/108/40 67/107/40
f 68/108/41 66/106/41 65/105/41
f 66/106/42 62/99/42 61/96/42
f 67/107/5 65/105/5 61/97/5
f 68/108/6 64/104/6 62/100/6
