# Blender 3.5.1
# www.blender.org
mtllib map2.mtl
o Cube.001
v 9.000000 0.000000 -9.000000
v 9.000000 20.000000 -9.000000
v 9.000000 0.000000 -11.000000
v 9.000000 20.000000 -11.000000
v 11.000000 0.000000 -9.000000
v 11.000000 20.000000 -9.000000
v 11.000000 0.000000 -11.000000
v 11.000000 20.000000 -11.000000
v 10.000000 0.100000 -10.000000
v 10.000000 -0.100000 -10.000000
v 10.000000 0.100000 10.000000
v 10.000000 -0.100000 10.000000
v -10.000000 0.100000 -10.000000
v -10.000000 -0.100000 -10.000000
v -10.000000 0.100000 10.000000
v -10.000000 -0.100000 10.000000
v -11.000000 0.000000 -9.000000
v -11.000000 20.000000 -9.000000
v -11.000000 0.000000 -11.000000
v -11.000000 20.000000 -11.000000
v -9.000000 0.000000 -9.000000
v -9.000000 20.000000 -9.000000
v -9.000000 0.000000 -11.000000
v -9.000000 20.000000 -11.000000
v 9.000000 0.000000 11.000000
v 9.000000 20.000000 11.000000
v 9.000000 0.000000 9.000000
v 9.000000 20.000000 9.000000
v 11.000000 0.000000 11.000000
v 11.000000 20.000000 11.000000
v 11.000000 0.000000 9.000000
v 11.000000 20.000000 9.000000
v -11.000000 0.000000 11.000000
v -11.000000 20.000000 11.000000
v -11.000000 0.000000 9.000000
v -11.000000 20.000000 9.000000
v -9.000000 0.000000 11.000000
v -9.000000 20.000000 11.000000
v -9.000000 0.000000 9.000000
v -9.000000 20.000000 9.000000
vn -1.0000 -0.0000 -0.0000
vn -0.0000 -0.0000 -1.0000
vn 1.0000 -0.0000 -0.0000
vn -0.0000 -0.0000 1.0000
vn -0.0000 -1.0000 -0.0000
vn -0.0000 1.0000 -0.0000
vt 0.375000 0.000000
vt 0.375000 1.000000
vt 0.125000 0.750000
vt 0.625000 0.000000
vt 0.625000 1.000000
vt 0.875000 0.750000
vt 0.125000 0.500000
vt 0.375000 0.250000
vt 0.625000 0.250000
vt 0.875000 0.500000
vt 0.375000 0.750000
vt 0.625000 0.750000
vt 0.375000 0.500000
vt 0.625000 0.500000
vt 0.625000 0.500000
vt 0.375000 0.500000
vt 0.625000 0.750000
vt 0.375000 0.750000
vt 0.875000 0.500000
vt 0.625000 0.250000
vt 0.125000 0.500000
vt 0.375000 0.250000
vt 0.875000 0.750000
vt 0.625000 1.000000
vt 0.625000 0.000000
vt 0.375000 0.000000
vt 0.375000 1.000000
vt 0.125000 0.750000
vt 0.375000 0.000000
vt 0.375000 1.000000
vt 0.125000 0.750000
vt 0.625000 0.000000
vt 0.625000 1.000000
vt 0.875000 0.750000
vt 0.125000 0.500000
vt 0.375000 0.250000
vt 0.625000 0.250000
vt 0.875000 0.500000
vt 0.375000 0.750000
vt 0.625000 0.750000
vt 0.375000 0.500000
vt 0.625000 0.500000
vt 0.375000 0.000000
vt 0.375000 1.000000
vt 0.125000 0.750000
vt 0.625000 0.000000
vt 0.625000 1.000000
vt 0.875000 0.750000
vt 0.125000 0.500000
vt 0.375000 0.250000
vt 0.625000 0.250000
vt 0.875000 0.500000
vt 0.375000 0.750000
vt 0.625000 0.750000
vt 0.375000 0.500000
vt 0.625000 0.500000
vt 0.375000 0.000000
vt 0.375000 1.000000
vt 0.125000 0.750000
vt 0.625000 0.000000
vt 0.625000 1.000000
vt 0.875000 0.750000
vt 0.125000 0.500000
vt 0.375000 0.250000
vt 0.625000 0.250000
vt 0.875000 0.500000
vt 0.375000 0.750000
vt 0.625000 0.750000
vt 0.375000 0.500000
vt 0.625000 0.500000
s 0
usemtl Material
f 2/4/1 3/8/1 1/1/1
f 4/9/2 7/13/2 3/8/2
f 8/14/3 5/11/3 7/13/3
f 6/12/4 1/2/4 5/11/4
f 7/13/5 1/3/5 3/7/5
f 4/10/6 6/12/6 8/14/6
f 13/19/6 11/17/6 9/15/6
f 11/17/4 16/27/4 12/18/4
f 15/25/1 14/22/1 16/26/1
f 10/16/5 16/28/5 14/21/5
f 9/15/3 12/18/3 10/16/3
f 13/20/2 10/16/2 14/22/2
f 18/32/1 19/36/1 17/29/1
f 20/37/2 23/41/2 19/36/2
f 24/42/3 21/39/3 23/41/3
f 22/40/4 17/30/4 21/39/4
f 23/41/5 17/31/5 19/35/5
f 20/38/6 22/40/6 24/42/6
f 26/46/1 27/50/1 25/43/1
f 28/51/2 31/55/2 27/50/2
f 32/56/3 29/53/3 31/55/3
f 30/54/4 25/44/4 29/53/4
f 31/55/5 25/45/5 27/49/5
f 28/52/6 30/54/6 32/56/6
f 34/60/1 35/64/1 33/57/1
f 36/65/2 39/69/2 35/64/2
f 40/70/3 37/67/3 39/69/3
f 38/68/4 33/58/4 37/67/4
f 39/69/5 33/59/5 35/63/5
f 36/66/6 38/68/6 40/70/6
f 2/4/1 4/9/1 3/8/1
f 4/9/2 8/14/2 7/13/2
f 8/14/3 6/12/3 5/11/3
f 6/12/4 2/5/4 1/2/4
f 7/13/5 5/11/5 1/3/5
f 4/10/6 2/6/6 6/12/6
f 13/19/6 15/23/6 11/17/6
f 11/17/4 15/24/4 16/27/4
f 15/25/1 13/20/1 14/22/1
f 10/16/5 12/18/5 16/28/5
f 9/15/3 11/17/3 12/18/3
f 13/20/2 9/15/2 10/16/2
f 18/32/1 20/37/1 19/36/1
f 20/37/2 24/42/2 23/41/2
f 24/42/3 22/40/3 21/39/3
f 22/40/4 18/33/4 17/30/4
f 23/41/5 21/39/5 17/31/5
f 20/38/6 18/34/6 22/40/6
f 26/46/1 28/51/1 27/50/1
f 28/51/2 32/56/2 31/55/2
f 32/56/3 30/54/3 29/53/3
f 30/54/4 26/47/4 25/44/4
f 31/55/5 29/53/5 25/45/5
f 28/52/6 26/48/6 30/54/6
f 34/60/1 36/65/1 35/64/1
f 36/65/2 40/70/2 39/69/2
f 40/70/3 38/68/3 37/67/3
f 38/68/4 34/61/4 33/58/4
f 39/69/5 37/67/5 33/59/5
f 36/66/6 34/62/6 38/68/6
